          <svg
            width="32"
            height="32"
            viewBox="0 0 32 32"
            fill="none"
            xmlns="http://www.w3.org/2000/svg"
            aria-hidden="true"
          >
            <path
              d="M28.8 0H3.2C2.352 0 1.536 0.336 0.944 0.944C0.336 1.536 0 2.352 0 3.2V22.4C0 23.248 0.336 24.064 0.944 24.656C1.536 25.264 2.352 25.6 3.2 25.6H9.6L16 32L22.4 25.6H28.8C29.648 25.6 30.464 25.264 31.056 24.656C31.648 24.048 32 23.248 32 22.4V3.2C32 2.352 31.664 1.536 31.056 0.944C30.464 0.336 29.648 0 28.8 0ZM3.2 22.4V3.2H28.8V22.4H21.072L16 27.472L10.928 22.4M12.88 6.464C13.744 5.888 14.88 5.6 16.304 5.6C17.808 5.6 19.008 5.936 19.872 6.592C20.736 7.264 21.168 8.16 21.168 9.28C21.168 9.984 20.928 10.608 20.464 11.2C20 11.776 19.392 12.224 18.656 12.56C18.24 12.8 17.968 13.04 17.824 13.312C17.68 13.6 17.6 13.952 17.6 14.4H14.4C14.4 13.6 14.56 13.056 14.864 12.672C15.2 12.288 15.744 11.84 16.576 11.328C16.992 11.104 17.328 10.816 17.6 10.464C17.824 10.128 17.952 9.728 17.952 9.28C17.952 8.8 17.808 8.448 17.52 8.176C17.232 7.888 16.8 7.76 16.304 7.76C15.872 7.76 15.52 7.872 15.2 8.096C14.944 8.32 14.784 8.656 14.784 9.104H11.632C11.552 8 12 7.04 12.88 6.464ZM14.4 19.2V16H17.6V19.2H14.4Z"
              fill="#ECF5F1"
            />
          </svg>
