<svg width="30" height="40" viewBox="0 0 30 40" fill="none" xmlns="http://www.w3.org/2000/svg">
<path d="M5.1 18.5749C5.43966 16.1912 6.62796 14.0101 8.44663 12.4322C10.2653 10.8543 12.5922 9.9856 15 9.9856C17.4078 9.9856 19.7347 10.8543 21.5534 12.4322C23.372 14.0101 24.5603 16.1912 24.9 18.5749C24.9261 18.7388 24.9193 18.9063 24.8799 19.0675C24.8406 19.2288 24.7696 19.3806 24.6709 19.5141C24.5723 19.6476 24.4481 19.7601 24.3055 19.8451C24.163 19.9301 24.0049 19.9858 23.8406 20.009C23.6762 20.0323 23.5089 20.0226 23.3484 19.9804C23.1878 19.9383 23.0373 19.8647 22.9055 19.7638C22.7737 19.6628 22.6634 19.5367 22.5809 19.3927C22.4984 19.2486 22.4454 19.0896 22.425 18.9249C22.1703 17.1372 21.279 15.5013 19.915 14.3179C18.551 13.1345 16.8058 12.4829 15 12.4829C13.1942 12.4829 11.449 13.1345 10.085 14.3179C8.72097 15.5013 7.82974 17.1372 7.575 18.9249C7.55461 19.0896 7.50162 19.2486 7.41912 19.3927C7.33663 19.5367 7.22627 19.6628 7.0945 19.7638C6.96274 19.8647 6.81219 19.9383 6.65165 19.9804C6.4911 20.0226 6.32378 20.0323 6.15944 20.009C5.9951 19.9858 5.83704 19.9301 5.69447 19.8451C5.5519 19.7601 5.42768 19.6476 5.32906 19.5141C5.23044 19.3806 5.15939 19.2288 5.12007 19.0675C5.08074 18.9063 5.07392 18.7388 5.1 18.5749ZM5 23.7499C5 23.4184 5.1317 23.1005 5.36612 22.866C5.60054 22.6316 5.91848 22.4999 6.25 22.4999H23.75C24.0815 22.4999 24.3995 22.6316 24.6339 22.866C24.8683 23.1005 25 23.4184 25 23.7499V33.7499C25 34.0814 24.8683 34.3994 24.6339 34.6338C24.3995 34.8682 24.0815 34.9999 23.75 34.9999H6.25C5.91848 34.9999 5.60054 34.8682 5.36612 34.6338C5.1317 34.3994 5 34.0814 5 33.7499V23.7499ZM7.5 24.9999V32.4999H22.5V24.9999H20V26.2499C20 26.5814 19.8683 26.8994 19.6339 27.1338C19.3995 27.3682 19.0815 27.4999 18.75 27.4999C18.4185 27.4999 18.1005 27.3682 17.8661 27.1338C17.6317 26.8994 17.5 26.5814 17.5 26.2499V24.9999H7.5Z" fill="#ECF5F1"/>
<path d="M10 5.8525V5C10 3.67392 10.5268 2.40215 11.4645 1.46447C12.4021 0.526784 13.6739 0 15 0C16.3261 0 17.5979 0.526784 18.5355 1.46447C19.4732 2.40215 20 3.67392 20 5V5.8525C25.825 7.9125 30 13.47 30 20V33.75C30 35.4076 29.3415 36.9973 28.1694 38.1694C26.9973 39.3415 25.4076 40 23.75 40H6.25C4.5924 40 3.00269 39.3415 1.83058 38.1694C0.658481 36.9973 9.59625e-07 35.4076 9.59625e-07 33.75V20C-0.00110862 16.8972 0.960035 13.8703 2.751 11.3366C4.54197 8.8028 7.07462 6.88678 10 5.8525ZM12.5 5V5.2075C14.1549 4.92777 15.8451 4.92777 17.5 5.2075V5C17.5 4.33696 17.2366 3.70107 16.7678 3.23223C16.2989 2.76339 15.663 2.5 15 2.5C14.337 2.5 13.7011 2.76339 13.2322 3.23223C12.7634 3.70107 12.5 4.33696 12.5 5ZM15 7.5C11.6848 7.5 8.50537 8.81696 6.16117 11.1612C3.81696 13.5054 2.5 16.6848 2.5 20V33.75C2.5 34.7446 2.89509 35.6984 3.59835 36.4017C4.30161 37.1049 5.25544 37.5 6.25 37.5H23.75C24.7446 37.5 25.6984 37.1049 26.4017 36.4017C27.1049 35.6984 27.5 34.7446 27.5 33.75V20C27.5 16.6848 26.183 13.5054 23.8388 11.1612C21.4946 8.81696 18.3152 7.5 15 7.5Z" fill="#ECF5F1"/>
</svg>
