<svg width="112" height="111" viewBox="0 0 112 111" fill="none" xmlns="http://www.w3.org/2000/svg">
<path d="M13.729 28.4121H54.6753V34.7928H13.729V28.4121ZM22.1591 79.0965H45.643V84.2733H22.1591V79.0965ZM56.4817 50.2028H64.5505V101.73C64.5505 103.736 64.2695 105.382 63.7075 106.666C63.1455 107.95 62.1419 108.913 60.6968 109.555C59.1713 110.197 57.2043 110.599 54.7957 110.759C52.3871 110.92 49.2559 111 45.4022 111C45.1613 109.957 44.7197 108.672 44.0774 107.148C43.4351 105.703 42.7928 104.499 42.1505 103.536C45.0409 103.616 47.61 103.656 49.8581 103.656C52.1864 103.656 53.7118 103.616 54.4344 103.536C55.2373 103.456 55.7591 103.295 56 103.054C56.3211 102.813 56.4817 102.332 56.4817 101.61V50.2028ZM18.4258 69.1041C22.4401 68.9436 27.1369 68.7831 32.5161 68.6226C37.8953 68.462 43.5154 68.2614 49.3763 68.0206V73.3178C43.9168 73.6388 38.5778 73.9599 33.3591 74.2809C28.1405 74.5217 23.4036 74.7625 19.1484 75.0033L18.4258 69.1041ZM43.8366 79.0965H45.0409L46.1247 78.7354L49.9785 80.5412C48.3728 85.0358 46.1247 89.1291 43.2344 92.821C40.3441 96.4328 37.1326 99.603 33.6 102.332C30.0674 105.061 26.4545 107.268 22.7613 108.953C22.3599 108.311 21.7577 107.509 20.9548 106.546C20.2323 105.663 19.5498 104.98 18.9075 104.499C22.2796 103.054 25.6115 101.168 28.9032 98.8406C32.195 96.4328 35.1656 93.6236 37.8151 90.4132C40.4645 87.2028 42.4717 83.7918 43.8366 80.18V79.0965ZM51.0624 28.4121H52.9892L54.6753 28.051L59.7333 31.7831C56.5219 34.833 52.7082 37.7223 48.2925 40.4512C43.957 43.18 39.7018 45.4675 35.5269 47.3134C35.1254 46.6714 34.4832 45.949 33.6 45.1464C32.7971 44.3438 32.0746 43.7017 31.4323 43.2202C34.9649 41.5347 38.5778 39.4479 42.271 36.9599C45.9642 34.4718 48.8946 32.1041 51.0624 29.8568V28.4121ZM55.2774 0L61.4194 6.38069C57.405 7.42408 52.8287 8.3872 47.6903 9.27006C42.6323 10.1529 37.4136 10.9154 32.0344 11.5575C26.7355 12.1996 21.5971 12.7213 16.6194 13.1226C16.4588 12.2397 16.1376 11.1963 15.6559 9.99241C15.1742 8.70824 14.7326 7.62473 14.3312 6.74186C19.1484 6.18004 24.086 5.57809 29.1441 4.93601C34.2022 4.21367 39.0194 3.45119 43.5957 2.64858C48.172 1.76572 52.066 0.882861 55.2774 0ZM73.2215 2.5282H81.8925V95.1085C81.8925 97.9978 82.1735 99.8839 82.7355 100.767C83.2975 101.569 84.5821 101.971 86.5893 101.971C86.9907 101.971 87.7534 101.971 88.8774 101.971C90.0014 101.971 91.2057 101.971 92.4903 101.971C93.8552 101.971 95.1398 101.971 96.3441 101.971C97.5484 101.971 98.4315 101.971 98.9936 101.971C100.358 101.971 101.362 101.329 102.004 100.044C102.647 98.7603 103.088 96.513 103.329 93.3026C103.65 90.0119 103.891 85.3568 104.052 79.3373C105.176 80.2202 106.46 81.0228 107.905 81.7451C109.431 82.4675 110.796 82.9892 112 83.3102C111.759 89.8915 111.277 95.1486 110.555 99.0813C109.832 103.014 108.628 105.823 106.942 107.509C105.256 109.274 102.807 110.157 99.5957 110.157C99.1943 110.157 98.3111 110.157 96.9462 110.157C95.5814 110.157 94.0961 110.157 92.4903 110.157C90.8846 110.157 89.3993 110.157 88.0344 110.157C86.7498 110.157 85.8667 110.157 85.385 110.157C82.2538 110.157 79.805 109.716 78.0387 108.833C76.2724 107.95 75.028 106.385 74.3054 104.138C73.5828 101.971 73.2215 98.8807 73.2215 94.8677V2.5282ZM29.2645 14.5672L36.6108 12.8818C37.5742 14.808 38.3771 16.9751 39.0194 19.3829C39.6617 21.7907 40.0229 23.8373 40.1032 25.5228L32.3957 27.5694C32.3957 25.8037 32.0746 23.7169 31.4323 21.3091C30.8703 18.821 30.1477 16.5737 29.2645 14.5672ZM20.4731 42.7386L24.8086 38.0434C27.4581 38.846 30.228 39.8492 33.1183 41.0531C36.0086 42.1768 38.7384 43.3807 41.3075 44.6649C43.957 45.949 46.1649 47.2332 47.9312 48.5174L43.3548 53.9349C41.7491 52.731 39.6616 51.4469 37.0925 50.0824C34.5233 48.718 31.7534 47.3937 28.7828 46.1095C25.8925 44.7451 23.1226 43.6215 20.4731 42.7386ZM22.6409 91.9783L25.772 87.4035C28.6624 88.2061 31.633 89.2896 34.6839 90.654C37.8151 91.9382 40.7455 93.3026 43.4753 94.7473C46.2853 96.192 48.5735 97.5564 50.3398 98.8406L46.9677 104.138C45.2014 102.773 42.9534 101.369 40.2237 99.9241C37.4939 98.3991 34.6036 96.9544 31.5527 95.59C28.5018 94.1453 25.5312 92.9414 22.6409 91.9783ZM39.5011 63.6866L44.3183 61.1584C46.3254 62.9241 48.3326 64.9707 50.3398 67.2983C52.347 69.6258 53.8724 71.6323 54.9161 73.3178L49.8581 76.3275C48.8143 74.5618 47.2889 72.5152 45.2817 70.1876C43.3548 67.7798 41.428 65.6128 39.5011 63.6866ZM50.8215 12.1594L57.0839 9.02928C58.9305 11.1161 60.7369 13.4035 62.5032 15.8915C64.3498 18.3796 66.0358 20.8275 67.5613 23.2354C69.0867 25.6432 70.2509 27.8102 71.0538 29.7364L64.3097 33.5889C63.5068 31.6627 62.3828 29.4555 60.9376 26.9675C59.4925 24.4794 57.8867 21.9512 56.1204 19.3829C54.3541 16.7343 52.5878 14.3265 50.8215 12.1594ZM29.1441 55.8612L35.7677 57.9078C34.5634 60.5564 33.3591 63.2451 32.1548 65.974C30.9505 68.6226 29.7864 70.91 28.6624 72.8362L23.3634 71.0304C24.4072 68.9436 25.491 66.4555 26.6151 63.5662C27.7391 60.5965 28.5821 58.0282 29.1441 55.8612ZM7.22581 50.2028H60.3355V57.4262H15.1742V110.88H7.22581V50.2028ZM11.8022 5.41757L19.5097 7.10303C18.2251 12.4805 16.4186 17.6573 14.0903 22.6334C11.762 27.6095 9.23298 31.8633 6.50323 35.3948C6.02151 34.9132 5.37921 34.4317 4.57634 33.9501C3.77348 33.3883 2.97061 32.8265 2.16774 32.2646C1.36487 31.7028 0.642294 31.2213 0 30.82C2.72975 27.6095 5.09821 23.7972 7.10538 19.3829C9.19283 14.8883 10.7584 10.2332 11.8022 5.41757Z" fill="#ECF5F1" fill-opacity="0.2"/>
</svg>
