<svg width="29" height="30" viewBox="0 0 29 30" fill="none" xmlns="http://www.w3.org/2000/svg">
<path d="M4.00996 15.113H24.8296V17.4381H4.00996V15.113ZM13.0564 0H15.5586V26.4478H13.0564V0ZM0 25.7051C1.56121 25.662 3.34698 25.6189 5.3573 25.5759C7.36763 25.5328 9.50627 25.479 11.7732 25.4144C14.0402 25.3498 16.3606 25.2745 18.7345 25.1884C21.1298 25.1023 23.493 25.0161 25.8241 24.93L25.6958 27.1905C22.7017 27.3412 19.6648 27.4812 16.5852 27.6103C13.5269 27.761 10.6077 27.8902 7.82743 27.9978C5.0472 28.1055 2.56637 28.1916 0.384956 28.2562L0 25.7051ZM20.3064 20.732L22.552 19.7955C23.3647 20.6997 24.1881 21.7008 25.0221 22.7987C25.8776 23.8751 26.6582 24.9516 27.3639 26.028C28.0697 27.0829 28.615 28.0409 29 28.902L26.6261 30C26.2411 29.1604 25.7065 28.2024 25.0221 27.1259C24.3591 26.0495 23.6106 24.9516 22.7765 23.8321C21.9639 22.7126 21.1405 21.6792 20.3064 20.732ZM2.56637 5.16684H26.3695V18.6652H23.8673V7.49193H4.97235V18.9882H2.56637V5.16684Z" fill="#ECF5F1"/>
</svg>
