<svg width="38" height="38" viewBox="0 0 38 38" fill="none" xmlns="http://www.w3.org/2000/svg">
<g filter="url(#filter0_d_40_591)">
<path d="M5.67785 1.75303L7.08725 0C7.80313 0.30871 8.5302 0.661521 9.26846 1.05843C10.0291 1.45535 10.745 1.86329 11.4161 2.28225C12.1096 2.70121 12.6689 3.09813 13.094 3.47299L11.5839 5.45755C11.1588 5.06064 10.6107 4.64168 9.9396 4.20066C9.29083 3.75965 8.58613 3.32966 7.8255 2.91069C7.08725 2.46968 6.37136 2.08379 5.67785 1.75303ZM4 10.849L5.4094 9.06284C6.12528 9.3495 6.85235 9.69129 7.5906 10.0882C8.35123 10.4851 9.06711 10.8931 9.73826 11.312C10.4318 11.731 10.9911 12.1279 11.4161 12.5028L9.9396 14.5204C9.51454 14.1455 8.96644 13.7376 8.2953 13.2966C7.64653 12.8556 6.94183 12.4256 6.18121 12.0066C5.42058 11.5656 4.69351 11.1797 4 10.849ZM4.9396 27.8831C5.45414 27.0452 6.02461 26.0419 6.65101 24.8732C7.29978 23.6825 7.93736 22.4256 8.56376 21.1025C9.21253 19.7795 9.80537 18.5006 10.3423 17.2657L12.3557 18.7211C11.8635 19.8677 11.3266 21.0695 10.745 22.3263C10.1633 23.5832 9.55928 24.8181 8.93289 26.0309C8.32886 27.2216 7.7472 28.3241 7.18792 29.3385L4.9396 27.8831ZM14 1.12459H28.9664V3.47299H14V1.12459ZM31.4832 10.2536H34C34 10.2536 33.9888 10.3308 33.9664 10.4851C33.9664 10.6395 33.9664 10.8159 33.9664 11.0143C33.9664 11.1907 33.9553 11.3451 33.9329 11.4774C33.7539 14.366 33.5638 16.8247 33.3624 18.8534C33.1834 20.882 32.9821 22.5469 32.7584 23.8478C32.557 25.1488 32.3333 26.1742 32.0872 26.9239C31.8412 27.6516 31.5727 28.1918 31.2819 28.5447C30.9463 28.9636 30.5996 29.2503 30.2416 29.4046C29.906 29.559 29.4922 29.6582 29 29.7023C28.5749 29.7464 28.038 29.7574 27.3893 29.7354C26.7629 29.7354 26.0917 29.7244 25.3758 29.7023C25.3758 29.3495 25.3087 28.9416 25.1745 28.4785C25.0626 28.0375 24.906 27.6626 24.7047 27.3539C25.3982 27.4201 26.0358 27.4531 26.6174 27.4531C27.1991 27.4752 27.6353 27.4862 27.9262 27.4862C28.1946 27.5083 28.4183 27.4862 28.5973 27.4201C28.7763 27.3539 28.9441 27.2216 29.1007 27.0232C29.4362 26.6924 29.7383 25.9537 30.0067 24.8071C30.2975 23.6604 30.5548 21.9625 30.7785 19.7133C31.0246 17.4421 31.2595 14.4542 31.4832 10.7497V10.2536ZM15.2416 12.9989C15.1969 12.8004 15.1074 12.5579 14.9732 12.2712C14.8613 11.9846 14.7271 11.6979 14.5705 11.4112C14.4362 11.1025 14.3132 10.849 14.2013 10.6505C14.6488 10.5623 15.1969 10.3749 15.8456 10.0882C16.5168 9.77949 17.1991 9.41566 17.8926 8.99669C18.2506 8.77619 18.7987 8.4344 19.5369 7.97133C20.2975 7.50827 21.1477 6.94597 22.0872 6.28445C23.0492 5.60088 24.0336 4.86218 25.0403 4.06836C26.0694 3.27453 27.0201 2.45865 27.8926 1.62073V1.45535L29.1342 0.92613L31.0134 2.3484C28.5973 4.35502 26.226 6.16318 23.8993 7.77288C21.5727 9.36053 19.3132 10.6946 17.1208 11.7751V11.8743C17.1208 11.8743 17.0201 11.9074 16.8188 11.9735C16.6398 12.0397 16.4273 12.1279 16.1812 12.2381C15.9351 12.3484 15.7114 12.4697 15.5101 12.602C15.3311 12.7343 15.2416 12.8666 15.2416 12.9989ZM15.2416 12.9989V10.9151L16.6846 10.2536H32.3221V12.602H18.2617C17.4564 12.602 16.7852 12.6351 16.2483 12.7012C15.7338 12.7674 15.3982 12.8666 15.2416 12.9989ZM26.651 11.5435L28.9329 12.0397C27.7248 16.097 26.0582 19.6362 23.9329 22.6571C21.83 25.656 19.2685 28.1036 16.2483 30C16.1141 29.8677 15.9239 29.7023 15.6779 29.5039C15.4541 29.3054 15.2081 29.118 14.9396 28.9416C14.6935 28.7652 14.4698 28.6218 14.2685 28.5116C17.3557 26.7696 19.9172 24.4653 21.953 21.5987C24.0112 18.71 25.5772 15.3583 26.651 11.5435ZM20.2752 11.742L22.557 12.2712C21.774 14.5204 20.6779 16.538 19.2685 18.3241C17.8591 20.1103 16.3154 21.5987 14.6376 22.7894C14.5034 22.6571 14.3132 22.5028 14.0671 22.3263C13.8434 22.1279 13.5973 21.9405 13.3289 21.7641C13.0828 21.5877 12.8702 21.4333 12.6913 21.301C14.3915 20.2646 15.9016 18.9195 17.2215 17.2657C18.5638 15.6119 19.5817 13.7707 20.2752 11.742Z" fill="#ECF5F1"/>
</g>
<defs>
<filter id="filter0_d_40_591" x="0" y="0" width="38" height="38" filterUnits="userSpaceOnUse" color-interpolation-filters="sRGB">
<feFlood flood-opacity="0" result="BackgroundImageFix"/>
<feColorMatrix in="SourceAlpha" type="matrix" values="0 0 0 0 0 0 0 0 0 0 0 0 0 0 0 0 0 0 127 0" result="hardAlpha"/>
<feOffset dy="4"/>
<feGaussianBlur stdDeviation="2"/>
<feComposite in2="hardAlpha" operator="out"/>
<feColorMatrix type="matrix" values="0 0 0 0 0 0 0 0 0 0 0 0 0 0 0 0 0 0 0.25 0"/>
<feBlend mode="normal" in2="BackgroundImageFix" result="effect1_dropShadow_40_591"/>
<feBlend mode="normal" in="SourceGraphic" in2="effect1_dropShadow_40_591" result="shape"/>
</filter>
</defs>
</svg>
