<svg width="109" height="111" viewBox="0 0 109 111" fill="none" xmlns="http://www.w3.org/2000/svg">
<path d="M6.0962 6.48622L11.217 0C13.818 1.14223 16.4597 2.44763 19.1421 3.91621C21.9057 5.38479 24.5067 6.89416 26.9452 8.44432C29.465 9.99449 31.497 11.4631 33.0414 12.8501L27.5548 20.1929C26.0104 18.7244 24.019 17.1742 21.5805 15.5424C19.2233 13.9107 16.6629 12.3197 13.8993 10.7696C11.217 9.13781 8.61596 7.71003 6.0962 6.48622ZM0 40.1411L5.12081 33.5325C7.72185 34.5932 10.3635 35.8578 13.0459 37.3264C15.8095 38.7949 18.4105 40.3043 20.849 41.8545C23.3688 43.4046 25.4008 44.8732 26.9452 46.2602L21.5805 53.7255C20.0362 52.3385 18.0447 50.8291 15.6063 49.1974C13.2491 47.5656 10.6887 45.9746 7.92506 44.4245C5.16145 42.7927 2.51976 41.3649 0 40.1411ZM3.41387 103.168C5.28337 100.067 7.35608 96.355 9.63199 92.0309C11.9892 87.6251 14.3057 82.9746 16.5817 78.0794C18.9389 73.1841 21.0928 68.452 23.0436 63.8831L30.3591 69.2679C28.5708 73.5105 26.6201 77.957 24.5067 82.6075C22.3934 87.258 20.1987 91.8269 17.9228 96.3142C15.7282 100.72 13.6148 104.799 11.5828 108.552L3.41387 103.168ZM36.3333 4.16097H90.7114V12.8501H36.3333V4.16097ZM99.8557 37.9383H109C109 37.9383 108.959 38.2238 108.878 38.7949C108.878 39.366 108.878 40.0187 108.878 40.753C108.878 41.4057 108.837 41.9768 108.756 42.4664C108.106 53.1544 107.415 62.2514 106.683 69.7574C106.033 77.2635 105.302 83.4234 104.489 88.237C103.757 93.0507 102.944 96.8445 102.05 99.6185C101.156 102.311 100.181 104.31 99.1242 105.615C97.9049 107.165 96.645 108.226 95.3445 108.797C94.1253 109.368 92.6215 109.735 90.8333 109.899C89.289 110.062 87.3382 110.103 84.981 110.021C82.7051 110.021 80.2666 109.98 77.6655 109.899C77.6655 108.593 77.4217 107.084 76.934 105.37C76.5276 103.739 75.9586 102.352 75.2271 101.209C77.7468 101.454 80.0634 101.577 82.1767 101.577C84.2901 101.658 85.8751 101.699 86.9318 101.699C87.9072 101.781 88.72 101.699 89.3702 101.454C90.0205 101.209 90.6301 100.72 91.1991 99.9857C92.4183 98.7619 93.5157 96.0287 94.491 91.7861C95.5477 87.5435 96.4825 81.2613 97.2953 72.9394C98.1894 64.5358 99.0429 53.4807 99.8557 39.774V37.9383ZM40.8445 48.0959C40.682 47.3616 40.3568 46.4642 39.8691 45.4035C39.4627 44.3429 38.975 43.2822 38.406 42.2216C37.9183 41.0794 37.4713 40.1411 37.0649 39.4068C38.6905 39.0805 40.682 38.387 43.0391 37.3264C45.4776 36.1841 47.9567 34.8379 50.4765 33.2878C51.777 32.4719 53.7685 31.2073 56.4508 29.4939C59.2144 27.7806 62.3031 25.7001 65.717 23.2525C69.2122 20.7233 72.7886 17.9901 76.4463 15.0529C80.1853 12.1158 83.6398 9.09702 86.8098 5.99669V5.38478L91.321 3.42668L98.1488 8.68908C89.3702 16.1136 80.7543 22.8037 72.3009 28.7596C63.8475 34.634 55.638 39.57 47.6723 43.5678V43.935C47.6723 43.935 47.3065 44.0573 46.5749 44.3021C45.9247 44.5469 45.1525 44.8732 44.2584 45.2811C43.3643 45.6891 42.5515 46.1378 41.8199 46.6273C41.1696 47.1169 40.8445 47.6064 40.8445 48.0959ZM40.8445 48.0959V40.3859L46.0872 37.9383H102.904V46.6273H51.8177C48.8915 46.6273 46.453 46.7497 44.5022 46.9945C42.6327 47.2392 41.4135 47.6064 40.8445 48.0959ZM82.2987 42.7111L90.5895 44.5469C86.2002 59.559 80.1447 72.6538 72.4228 83.8313C64.7822 94.9272 55.4754 103.983 44.5022 111C44.0145 110.51 43.3236 109.899 42.4295 109.164C41.6167 108.43 40.7226 107.736 39.7472 107.084C38.8531 106.431 38.0403 105.901 37.3087 105.493C48.5257 99.0474 57.8326 90.5215 65.2293 79.9151C72.7073 69.2271 78.3971 56.8258 82.2987 42.7111ZM59.1331 43.4454L67.4239 45.4035C64.579 53.7255 60.5962 61.1907 55.4754 67.7993C50.3546 74.4079 44.7461 79.9151 38.6499 84.3208C38.1622 83.8313 37.4713 83.2602 36.5772 82.6075C35.7644 81.8732 34.8702 81.1797 33.8949 80.527C33.0007 79.8743 32.2286 79.3032 31.5783 78.8137C37.7558 74.9791 43.2424 70.0022 48.038 63.8831C52.915 57.7641 56.6133 50.9515 59.1331 43.4454Z" fill="#ECF5F1" fill-opacity="0.2"/>
</svg>
