<svg width="108" height="111" viewBox="0 0 108 111" fill="none" xmlns="http://www.w3.org/2000/svg">
<path d="M14.9336 55.9182H92.469V64.521H14.9336V55.9182ZM48.6239 0H57.9425V97.8568H48.6239V0ZM0 95.1087C5.81416 94.9494 12.4646 94.7901 19.9513 94.6308C27.4381 94.4715 35.4027 94.2723 43.8451 94.0334C52.2876 93.7944 60.9292 93.5156 69.7699 93.197C78.6903 92.8784 87.4911 92.5597 96.1726 92.2411L95.6947 100.605C84.5442 101.163 73.2345 101.68 61.7655 102.158C50.3761 102.716 39.5044 103.194 29.1504 103.592C18.7965 103.99 9.55752 104.309 1.43363 104.548L0 95.1087ZM75.6239 76.7083L83.9867 73.2433C87.0133 76.5888 90.0796 80.2928 93.1858 84.3552C96.3717 88.338 99.2788 92.3208 101.907 96.3036C104.535 100.207 106.566 103.751 108 106.938L99.1593 111C97.7257 107.893 95.7345 104.349 93.1858 100.366C90.7168 96.3832 87.9292 92.3208 84.823 88.1787C81.7965 84.0366 78.7301 80.2131 75.6239 76.7083ZM9.55752 19.1173H98.2035V69.0614H88.885V27.7201H18.5177V70.2562H9.55752V19.1173Z" fill="#ECF5F1" fill-opacity="0.2"/>
</svg>
