<svg width="30" height="30" viewBox="0 0 30 30" fill="none" xmlns="http://www.w3.org/2000/svg">
<path d="M3.67742 7.67896H14.6452V9.40347H3.67742V7.67896ZM5.93548 21.3774H12.2258V22.7766H5.93548V21.3774ZM15.129 13.5683H17.2903V27.4946C17.2903 28.0369 17.2151 28.4816 17.0645 28.8286C16.914 29.1757 16.6452 29.436 16.2581 29.6095C15.8495 29.7831 15.3226 29.8915 14.6774 29.9349C14.0323 29.9783 13.1935 30 12.1613 30C12.0968 29.718 11.9785 29.3709 11.8065 28.9588C11.6344 28.5683 11.4624 28.243 11.2903 27.9826C12.0645 28.0043 12.7527 28.0152 13.3548 28.0152C13.9785 28.0152 14.3871 28.0043 14.5806 27.9826C14.7957 27.961 14.9355 27.9176 15 27.8525C15.086 27.7874 15.129 27.6573 15.129 27.462V13.5683ZM4.93548 18.6768C6.01075 18.6334 7.26882 18.59 8.70968 18.5466C10.1505 18.5033 11.6559 18.449 13.2258 18.3839V19.8156C11.7634 19.9024 10.3333 19.9892 8.93548 20.0759C7.53763 20.141 6.26882 20.2061 5.12903 20.2712L4.93548 18.6768ZM11.7419 21.3774H12.0645L12.3548 21.2798L13.3871 21.7679C12.957 22.9826 12.3548 24.0889 11.5806 25.0868C10.8065 26.0629 9.94624 26.9197 9 27.6573C8.05376 28.3948 7.08602 28.9913 6.09677 29.4469C5.98925 29.2733 5.82796 29.0564 5.6129 28.7961C5.41936 28.5575 5.23656 28.3731 5.06452 28.243C5.96774 27.8525 6.86022 27.3427 7.74194 26.7137C8.62366 26.0629 9.41935 25.3037 10.129 24.436C10.8387 23.5683 11.3763 22.6464 11.7419 21.6703V21.3774ZM13.6774 7.67896H14.1935L14.6452 7.58134L16 8.59002C15.1398 9.41432 14.1183 10.1952 12.9355 10.9328C11.7742 11.6703 10.6344 12.2885 9.51613 12.7874C9.4086 12.6139 9.23656 12.4187 9 12.2017C8.78495 11.9848 8.5914 11.8113 8.41936 11.6811C9.36559 11.2256 10.3333 10.6616 11.3226 9.98915C12.3118 9.3167 13.0968 8.67679 13.6774 8.06941V7.67896ZM14.8065 0L16.4516 1.72451C15.3763 2.00651 14.1505 2.26681 12.7742 2.50542C11.4194 2.74403 10.0215 2.95011 8.58065 3.12364C7.16129 3.29718 5.78495 3.43818 4.45161 3.54664C4.4086 3.30803 4.32258 3.02603 4.19355 2.70065C4.06452 2.35358 3.94624 2.06074 3.83871 1.82213C5.12903 1.67028 6.45161 1.50759 7.80645 1.33406C9.16129 1.13883 10.4516 0.932754 11.6774 0.715834C12.9032 0.477222 13.9462 0.238611 14.8065 0ZM19.6129 0.683296H21.9355V25.705C21.9355 26.4859 22.0108 26.9957 22.1613 27.2343C22.3118 27.4512 22.6559 27.5597 23.1936 27.5597C23.3011 27.5597 23.5054 27.5597 23.8065 27.5597C24.1075 27.5597 24.4301 27.5597 24.7742 27.5597C25.1398 27.5597 25.4839 27.5597 25.8065 27.5597C26.129 27.5597 26.3656 27.5597 26.5161 27.5597C26.8817 27.5597 27.1505 27.3861 27.3226 27.039C27.4946 26.692 27.6129 26.0846 27.6774 25.2169C27.7634 24.3275 27.828 23.0694 27.871 21.4425C28.172 21.6811 28.5161 21.898 28.9032 22.0933C29.3118 22.2885 29.6774 22.4295 30 22.5163C29.9355 24.295 29.8065 25.7158 29.6129 26.7787C29.4194 27.8416 29.0968 28.6009 28.6452 29.0564C28.1935 29.5336 27.5376 29.7722 26.6774 29.7722C26.5699 29.7722 26.3333 29.7722 25.9677 29.7722C25.6022 29.7722 25.2043 29.7722 24.7742 29.7722C24.3441 29.7722 23.9462 29.7722 23.5806 29.7722C23.2366 29.7722 23 29.7722 22.871 29.7722C22.0323 29.7722 21.3763 29.6529 20.9032 29.4143C20.4301 29.1757 20.0968 28.7527 19.9032 28.1453C19.7097 27.5597 19.6129 26.7245 19.6129 25.6399V0.683296ZM7.83871 3.93709L9.80645 3.48156C10.0645 4.00217 10.2796 4.58785 10.4516 5.23861C10.6237 5.88937 10.7204 6.44252 10.7419 6.89805L8.67742 7.45119C8.67742 6.97397 8.5914 6.40998 8.41936 5.75922C8.26882 5.08677 8.07527 4.47939 7.83871 3.93709ZM5.48387 11.551L6.64516 10.282C7.35484 10.4989 8.09677 10.7701 8.87097 11.0954C9.64516 11.3991 10.3763 11.7245 11.0645 12.0716C11.7742 12.4187 12.3656 12.7657 12.8387 13.1128L11.6129 14.577C11.1828 14.2516 10.6237 13.9046 9.93548 13.5358C9.24731 13.167 8.50538 12.8091 7.70968 12.462C6.93548 12.0933 6.19355 11.7896 5.48387 11.551ZM6.06452 24.859L6.90323 23.6226C7.67742 23.8395 8.47312 24.1323 9.29032 24.5011C10.129 24.8482 10.914 25.2169 11.6452 25.6074C12.3978 25.9978 13.0108 26.3666 13.4839 26.7137L12.5806 28.1453C12.1075 27.7766 11.5054 27.397 10.7742 27.0065C10.043 26.5944 9.26882 26.2039 8.45161 25.8351C7.63441 25.4447 6.83871 25.1193 6.06452 24.859ZM10.5806 17.2126L11.871 16.5293C12.4086 17.0065 12.9462 17.5597 13.4839 18.1887C14.0215 18.8178 14.4301 19.3601 14.7097 19.8156L13.3548 20.6291C13.0753 20.1518 12.6667 19.5987 12.129 18.9696C11.6129 18.3189 11.0968 17.7332 10.5806 17.2126ZM13.6129 3.28633L15.2903 2.44035C15.7849 3.00434 16.2688 3.62256 16.7419 4.29501C17.2366 4.96746 17.6882 5.62907 18.0968 6.27983C18.5054 6.93059 18.8172 7.51627 19.0323 8.03688L17.2258 9.07809C17.0108 8.55748 16.7097 7.96095 16.3226 7.2885C15.9355 6.61605 15.5054 5.93276 15.0323 5.23861C14.5591 4.52278 14.086 3.87202 13.6129 3.28633ZM7.80645 15.0976L9.58064 15.6508C9.25806 16.3666 8.93548 17.0933 8.6129 17.8308C8.29032 18.5466 7.9785 19.1649 7.67742 19.6855L6.25806 19.1974C6.53763 18.6334 6.82796 17.961 7.12903 17.18C7.43011 16.3774 7.65591 15.6833 7.80645 15.0976ZM1.93548 13.5683H16.1613V15.5206H4.06452V29.9675H1.93548V13.5683ZM3.16129 1.46421L5.22581 1.91974C4.88172 3.3731 4.39785 4.77223 3.77419 6.11714C3.15054 7.46204 2.47312 8.61171 1.74194 9.56616C1.6129 9.43601 1.44086 9.30586 1.22581 9.1757C1.01075 9.02386 0.795699 8.87202 0.580645 8.72017C0.365591 8.56833 0.172043 8.43818 0 8.32972C0.731183 7.46204 1.36559 6.43167 1.90323 5.23861C2.46237 4.02386 2.88172 2.76573 3.16129 1.46421Z" fill="#ECF5F1"/>
</svg>
