<svg width="112" height="111" viewBox="0 0 112 111" fill="none" xmlns="http://www.w3.org/2000/svg">
<path d="M0 102.778H110.881V111H0V102.778ZM10.3174 68.3939H101.683V104.896H92.4839V76.8653H73.465V104.896H65.1365V76.8653H46.242V104.896H37.7891V76.8653H19.1432V104.896H10.3174V68.3939ZM75.7025 25.9125L81.4206 19.1852C84.7355 21.0954 88.2989 23.2963 92.111 25.7879C96.0059 28.2795 99.7351 30.771 103.299 33.2626C106.862 35.6712 109.762 37.789 112 39.6162L106.158 47.4646C103.92 45.4714 101.061 43.1874 97.5805 40.6128C94.1828 38.0382 90.5364 35.4635 86.6415 32.8889C82.8294 30.3142 79.1831 27.9888 75.7025 25.9125ZM68.1199 0.124578H77.6915V63.6599H68.1199V0.124578ZM0.124307 52.8215C5.01369 52.2402 10.6903 51.5342 17.1543 50.7037C23.7011 49.8732 30.6208 48.9596 37.9134 47.963C45.2061 46.9663 52.5401 45.9282 59.9156 44.8485L60.1643 53.1953C53.1202 54.1919 46.0348 55.2301 38.9079 56.3098C31.8639 57.3064 25.1099 58.2615 18.6459 59.1751C12.2649 60.0887 6.50536 60.9192 1.36737 61.6667L0.124307 52.8215ZM3.23196 18.6869H57.4295V27.0337H3.23196V18.6869ZM26.8502 0H36.1731V51.202H26.8502V0Z" fill="#ECF5F1" fill-opacity="0.2"/>
</svg>
