<svg width="30" height="30" viewBox="0 0 30 30" fill="none" xmlns="http://www.w3.org/2000/svg">
<path d="M0 27.7778H29.7003V30H0V27.7778ZM2.7636 18.4848H27.2364V28.3502H24.7725V20.7744H19.6781V28.3502H17.4473V20.7744H12.3862V28.3502H10.1221V20.7744H5.12764V28.3502H2.7636V18.4848ZM20.2775 7.00337L21.8091 5.18518C22.697 5.70146 23.6515 6.2963 24.6726 6.9697C25.7159 7.6431 26.7148 8.3165 27.6693 8.9899C28.6237 9.64085 29.4007 10.2132 30 10.7071L28.4351 12.8283C27.8357 12.2896 27.0699 11.6723 26.1376 10.9764C25.2275 10.2806 24.2508 9.58474 23.2075 8.88889C22.1865 8.19304 21.2098 7.56453 20.2775 7.00337ZM18.2464 0.0336696H20.8102V17.2054H18.2464V0.0336696ZM0.0332964 14.2761C1.34295 14.119 2.86348 13.9282 4.59489 13.7037C6.3485 13.4792 8.202 13.2323 10.1554 12.963C12.1088 12.6936 14.0733 12.413 16.0488 12.1212L16.1154 14.3771C14.2286 14.6465 12.3307 14.927 10.4218 15.2189C8.53496 15.4882 6.72586 15.7464 4.99445 15.9933C3.28524 16.2402 1.74251 16.4646 0.36626 16.6667L0.0332964 14.2761ZM0.865705 5.0505H15.3829V7.3064H0.865705V5.0505ZM7.19201 0H9.68923V13.8384H7.19201V0Z" fill="#ECF5F1"/>
</svg>
