<svg width="30" height="30" viewBox="0 0 30 30" fill="none" xmlns="http://www.w3.org/2000/svg">
<path d="M20.1433 11.6811H22.2933V15.8134H20.1433V11.6811ZM24.0794 4.718L26.097 5.36876C25.7222 6.14967 25.3363 6.97397 24.9394 7.84165C24.5645 8.70933 24.2007 9.44685 23.8479 10.0542L22.3264 9.50108C22.5469 9.04555 22.7674 8.53579 22.9879 7.9718C23.2084 7.40781 23.4179 6.84382 23.6163 6.27983C23.8148 5.69414 23.9691 5.17354 24.0794 4.718ZM16.7034 5.49892L18.2911 4.94577C18.688 5.61822 19.0298 6.38829 19.3164 7.25596C19.6031 8.10195 19.8015 8.81779 19.9118 9.40347L18.1588 10.0217C18.0926 9.41432 17.9162 8.68764 17.6295 7.84165C17.3649 6.97397 17.0562 6.19306 16.7034 5.49892ZM12.8335 1.56182H28.677V3.70933H15.0827V30H12.8335V1.56182ZM27.7508 1.56182H30V27.1692C30 27.8416 29.9228 28.3514 29.7685 28.6985C29.6141 29.0672 29.3164 29.3492 28.8754 29.5445C28.4344 29.718 27.8501 29.8265 27.1224 29.8698C26.3947 29.9349 25.5017 29.9566 24.4432 29.9349C24.3991 29.6529 24.2999 29.295 24.1455 28.8612C24.0132 28.4273 23.8699 28.0586 23.7155 27.7549C24.4873 27.7766 25.1929 27.7874 25.8324 27.7874C26.4939 27.8091 26.935 27.82 27.1555 27.82C27.376 27.7983 27.5303 27.7332 27.6185 27.6247C27.7067 27.538 27.7508 27.3861 27.7508 27.1692V1.56182ZM16.3065 9.95662H26.4278V11.8764H16.3065V9.95662ZM16.0419 15.2603H26.6262V17.2126H16.0419V15.2603ZM17.4642 16.3341H19.6141V21.833C19.6141 22.2451 19.6472 22.538 19.7133 22.7115C19.8015 22.8633 20.011 22.9393 20.3418 22.9393C20.4741 22.9393 20.7166 22.9393 21.0695 22.9393C21.4443 22.9393 21.8412 22.9393 22.2602 22.9393C22.6792 22.9393 23.0651 22.9393 23.4179 22.9393C23.7707 22.9393 24.0243 22.9393 24.1786 22.9393C24.4212 22.9393 24.7299 22.9284 25.1047 22.9067C25.4796 22.8633 25.7773 22.82 25.9978 22.7766C26.0198 23.0586 26.0419 23.4056 26.0639 23.8178C26.1081 24.2082 26.1522 24.5228 26.1963 24.7614C25.9757 24.8265 25.6891 24.8698 25.3363 24.8915C24.9835 24.9132 24.6086 24.9241 24.2117 24.9241C24.0573 24.9241 23.7927 24.9241 23.4179 24.9241C23.043 24.9241 22.6351 24.9241 22.194 24.9241C21.753 24.9241 21.3561 24.9241 21.0033 24.9241C20.6505 24.9241 20.43 24.9241 20.3418 24.9241C19.548 24.9241 18.9416 24.8265 18.5226 24.6312C18.1257 24.436 17.8501 24.1106 17.6957 23.6551C17.5413 23.1779 17.4642 22.5597 17.4642 21.8004V16.3341ZM5.62293 0L7.80596 0.813448C7.40904 1.61605 6.96803 2.45119 6.48291 3.31887C6.01985 4.18655 5.54576 5.03254 5.06064 5.85683C4.59757 6.65944 4.15656 7.36443 3.7376 7.9718L2.01764 7.22343C2.4366 6.59436 2.86659 5.85683 3.30761 5.01085C3.77067 4.16486 4.20066 3.29718 4.59757 2.40781C5.01654 1.51844 5.35833 0.715835 5.62293 0ZM9.32745 3.70933L11.4112 4.68547C10.6615 5.87852 9.8236 7.15835 8.89747 8.52495C7.97134 9.86985 7.03418 11.1714 6.086 12.4295C5.15987 13.6876 4.27784 14.7831 3.43991 15.7158L1.91841 14.8698C2.53583 14.154 3.18633 13.3406 3.8699 12.4295C4.55347 11.4967 5.22602 10.5315 5.88754 9.53362C6.54906 8.5141 7.17751 7.50542 7.77288 6.50759C8.36825 5.50976 8.88644 4.57701 9.32745 3.70933ZM0.363837 6.80043L1.6538 5.23861C2.24917 5.75922 2.84454 6.33406 3.43991 6.96312C4.05733 7.59219 4.61963 8.21041 5.12679 8.81779C5.63396 9.42516 6.03087 9.97831 6.31753 10.4772L4.92834 12.2993C4.64168 11.7787 4.24476 11.1931 3.7376 10.5423C3.25248 9.89154 2.71224 9.24078 2.11687 8.59002C1.5215 7.93926 0.937156 7.34273 0.363837 6.80043ZM8.03749 11.1605L9.85667 10.4447C10.3197 11.1388 10.7608 11.898 11.1797 12.7223C11.5987 13.5466 11.9735 14.3492 12.3043 15.1302C12.6571 15.8894 12.9107 16.5618 13.0651 17.1475L11.0805 18.0586C10.9482 17.4295 10.7166 16.7245 10.3859 15.9436C10.0772 15.141 9.72437 14.3275 9.32745 13.5033C8.93054 12.6573 8.50055 11.8764 8.03749 11.1605ZM0.0661522 14.3818C1.49945 14.3167 3.19735 14.2408 5.15987 14.154C7.14443 14.0456 9.1731 13.9371 11.2459 13.8286V15.8785C9.3054 16.0087 7.37597 16.1388 5.45755 16.269C3.56119 16.3774 1.86329 16.4751 0.363837 16.5618L0.0661522 14.3818ZM8.93054 19.0347L10.7497 18.5141C11.1687 19.4469 11.5436 20.4664 11.8743 21.5727C12.2051 22.6573 12.4256 23.6009 12.5358 24.4035L10.5843 25.0217C10.5182 24.1974 10.3197 23.2321 9.98898 22.1258C9.68027 20.9978 9.32745 19.9675 8.93054 19.0347ZM2.08379 18.6117L4.16759 18.9371C3.94708 20.4772 3.63837 21.9957 3.24146 23.4924C2.86659 24.9675 2.42558 26.2256 1.91841 27.2668C1.78611 27.18 1.59868 27.0824 1.35612 26.974C1.11356 26.8438 0.871003 26.7245 0.628445 26.6161C0.385888 26.5076 0.176406 26.4208 0 26.3557C0.551268 25.3579 0.992282 24.1757 1.32304 22.8091C1.6538 21.4208 1.90739 20.0217 2.08379 18.6117ZM5.58986 15.3579H7.77288V29.9349H5.58986V15.3579Z" fill="#ECF5F1"/>
</svg>
