<svg width="22" height="22" viewBox="0 0 22 22" fill="none" xmlns="http://www.w3.org/2000/svg">
<path d="M10.75 20.75C16.273 20.75 20.75 16.273 20.75 10.75C20.75 5.227 16.273 0.75 10.75 0.75C5.227 0.75 0.75 5.227 0.75 10.75C0.75 16.273 5.227 20.75 10.75 20.75Z" stroke="#ECF5F1" stroke-width="1.5" stroke-linecap="round" stroke-linejoin="round"/>
<path d="M13.083 17.75V15.887C13.108 15.577 13.065 15.267 12.957 14.974C12.8477 14.6811 12.6773 14.4148 12.457 14.193C14.55 13.966 16.75 13.193 16.75 9.64899C16.7481 8.73804 16.3891 7.86417 15.75 7.21499C16.0554 6.42331 16.0338 5.54276 15.69 4.76699C15.69 4.76699 14.903 4.53999 13.083 5.72799C11.5538 5.32476 9.94622 5.32476 8.41702 5.72799C6.59702 4.53999 5.81002 4.76799 5.81002 4.76799C5.4668 5.54318 5.44522 6.4229 5.75002 7.21399C5.10634 7.86785 4.74694 8.74946 4.75002 9.66699C4.75002 13.186 6.95002 13.958 9.04302 14.211C8.82514 14.4309 8.65613 14.6943 8.54702 14.984C8.43818 15.2715 8.3938 15.5794 8.41702 15.886V17.75" stroke="#ECF5F1" stroke-width="1.5" stroke-linecap="round" stroke-linejoin="round"/>
<path d="M8.417 16.452C6.417 17.083 4.75 16.452 3.75 14.504" stroke="#ECF5F1" stroke-width="1.5" stroke-linecap="round" stroke-linejoin="round"/>
</svg>
