<svg width="27" height="43" viewBox="0 0 27 43" fill="none" xmlns="http://www.w3.org/2000/svg">
<path d="M12.1663 7.90489V37.5914C12.1659 38.5125 11.9705 39.4038 11.6144 40.1083C11.2584 40.8128 10.7647 41.2853 10.2201 41.4426C9.67561 41.5998 9.11526 41.4317 8.6378 40.9679C8.16034 40.504 7.79641 39.7742 7.61013 38.907L4.74738 25.2394M4.74738 25.2394C3.61564 24.4374 2.6849 23.0105 2.11268 21.1962C1.54046 19.3819 1.36189 17.2937 1.60721 15.2852C1.85252 13.2766 2.50664 11.471 3.45888 10.1739C4.41112 8.87684 5.60298 8.16791 6.83278 8.16713H9.27551C14.7423 8.16713 19.4425 5.42472 21.4999 1.5V32.6133C19.4425 28.6886 14.7437 25.9461 9.27551 25.9461H6.83278C6.11627 25.9479 5.40694 25.706 4.74738 25.2394ZM21.4999 23.7238C22.5608 23.7238 23.5782 23.0213 24.3284 21.771C25.0785 20.5207 25.5 18.8249 25.5 17.0566C25.5 15.2884 25.0785 13.5926 24.3284 12.3423C23.5782 11.0919 22.5608 10.3895 21.4999 10.3895" stroke="#ECF5F1" stroke-width="3" stroke-linecap="round" stroke-linejoin="round"/>
</svg>
