<svg width="39" height="32" viewBox="0 0 39 32" fill="none" xmlns="http://www.w3.org/2000/svg">
<path d="M30.4738 19.6848L34.158 16.0006M34.158 16.0006L37.8422 12.3164M34.158 16.0006L30.4738 12.3164M34.158 16.0006L37.8422 19.6848" stroke="#ECF5F1" stroke-width="2" stroke-linecap="round" stroke-linejoin="round"/>
<path d="M1 19.4208V12.5792C1 11.6021 1.38816 10.665 2.07908 9.97406C2.77001 9.28314 3.7071 8.89498 4.68422 8.89498H10.0263C10.3865 8.89489 10.7388 8.78922 11.0395 8.59103L22.0922 1.30364C22.3699 1.12076 22.6919 1.01646 23.0241 1.00179C23.3563 0.987128 23.6862 1.06265 23.979 1.22035C24.2717 1.37805 24.5163 1.61205 24.6868 1.89752C24.8573 2.18299 24.9474 2.50929 24.9474 2.84181V29.1582C24.9474 29.4907 24.8573 29.817 24.6868 30.1025C24.5163 30.3879 24.2717 30.6219 23.979 30.7796C23.6862 30.9373 23.3563 31.0129 23.0241 30.9982C22.6919 30.9835 22.3699 30.8792 22.0922 30.6964L11.0395 23.409C10.7388 23.2108 10.3865 23.1051 10.0263 23.105H4.68422C3.7071 23.105 2.77001 22.7169 2.07908 22.0259C1.38816 21.335 1 20.3979 1 19.4208Z" stroke="#ECF5F1" stroke-width="2"/>
</svg>
