<svg width="41" height="30" viewBox="0 0 44 33" fill="none" xmlns="http://www.w3.org/2000/svg">
<path d="M1.5 19.9208V13.0792C1.5 12.1021 1.88816 11.165 2.57908 10.4741C3.27001 9.78314 4.2071 9.39498 5.18422 9.39498H10.5263C10.8865 9.39489 11.2388 9.28922 11.5395 9.09103L22.5922 1.80364C22.8699 1.62076 23.1919 1.51646 23.5241 1.50179C23.8563 1.48713 24.1862 1.56265 24.479 1.72035C24.7717 1.87805 25.0163 2.11205 25.1868 2.39752C25.3573 2.68299 25.4474 3.00929 25.4474 3.34181V29.6582C25.4474 29.9907 25.3573 30.317 25.1868 30.6025C25.0163 30.8879 24.7717 31.1219 24.479 31.2796C24.1862 31.4373 23.8563 31.5129 23.5241 31.4982C23.1919 31.4835 22.8699 31.3792 22.5922 31.1964L11.5395 23.909C11.2388 23.7108 10.8865 23.6051 10.5263 23.605H5.18422C4.2071 23.605 3.27001 23.2169 2.57908 22.5259C1.88816 21.835 1.5 20.8979 1.5 19.9208Z" stroke="#ECF5F1" stroke-width="3"/>
<path d="M31.8948 8.2109C31.8948 8.2109 34.658 10.9741 34.658 15.5793C34.658 20.1846 31.8948 22.9478 31.8948 22.9478M37.4212 2.68457C37.4212 2.68457 42.0264 7.28985 42.0264 15.5793C42.0264 23.8688 37.4212 28.4741 37.4212 28.4741" stroke="#ECF5F1" stroke-width="3" stroke-linecap="round" stroke-linejoin="round"/>
</svg>
