<svg width="111" height="111" viewBox="0 0 111 111" fill="none" xmlns="http://www.w3.org/2000/svg">
<path d="M18.6431 23.1301L27.842 25.0882C27.1061 29.9019 26.084 34.7155 24.7757 39.5292C23.4674 44.2613 21.6685 48.667 19.379 52.7464C17.1713 56.7442 14.2276 60.1301 10.5481 62.9041L2.57569 57.5193C5.92818 55.0717 8.6674 52.0121 10.7934 48.3407C12.9193 44.6692 14.5956 40.6714 15.8221 36.3473C17.1304 32.0232 18.0707 27.6174 18.6431 23.1301ZM95.6685 22.8853L105.603 26.8015C103.641 30.6362 101.474 34.634 99.1028 38.7949C96.8133 42.9559 94.4829 46.9945 92.1116 50.9107C89.8221 54.7453 87.6144 58.1312 85.4884 61.0684L77.7613 57.3969C79.8055 54.3782 81.9315 50.8699 84.1392 46.8721C86.4287 42.8743 88.5547 38.7949 90.5171 34.634C92.5613 30.3914 94.2785 26.4752 95.6685 22.8853ZM59.7315 0V39.6516C59.7315 42.0176 60.0177 44.8732 60.5901 48.2183C61.1624 51.4818 62.1436 55.0717 63.5337 58.9879C64.9238 62.8225 66.8453 66.7795 69.2983 70.8589C71.8331 74.8567 74.9812 78.8137 78.7425 82.7299C82.5039 86.6461 87.042 90.3175 92.3569 93.7442C97.6718 97.0893 103.886 100.026 111 102.556C110.346 103.208 109.61 104.024 108.792 105.003C108.056 106.064 107.32 107.125 106.585 108.185C105.849 109.246 105.235 110.184 104.745 111C97.6309 108.308 91.4166 105.126 86.1017 101.454C80.7867 97.7828 76.2486 93.9074 72.4873 89.828C68.726 85.7486 65.6188 81.6692 63.1657 77.5899C60.7127 73.5105 58.832 69.7166 57.5238 66.2084C56.2155 62.7001 55.2751 59.8037 54.7028 57.5193C54.2122 59.8853 53.3127 62.7817 52.0044 66.2084C50.7779 69.6351 48.979 73.3473 46.6077 77.3451C44.3182 81.3429 41.3337 85.3815 37.6541 89.4609C34.0564 93.5402 29.6409 97.4157 24.4077 101.087C19.2564 104.84 13.2055 108.144 6.25525 111C5.92818 110.347 5.3558 109.531 4.53812 108.552C3.80221 107.655 3.02541 106.717 2.20773 105.738C1.39006 104.759 0.654144 103.943 0 103.29C8.25856 100.19 15.2497 96.4774 20.9735 92.1532C26.779 87.7475 31.5624 83.1378 35.3238 78.3241C39.0851 73.4289 42.0287 68.5744 44.1547 63.7607C46.2807 58.9471 47.7525 54.4598 48.5702 50.2988C49.3878 46.1378 49.7967 42.6295 49.7967 39.774V0H59.7315Z" fill="#ECF5F1" fill-opacity="0.2"/>
</svg>
