<svg width="30" height="30" viewBox="0 0 30 30" fill="none" xmlns="http://www.w3.org/2000/svg">
<path d="M5.03867 6.25138L7.52486 6.78059C7.32597 8.08159 7.04972 9.38258 6.69613 10.6836C6.34254 11.9625 5.85635 13.1533 5.23757 14.2558C4.64088 15.3363 3.8453 16.2514 2.85083 17.0011L0.696132 15.5458C1.60221 14.8842 2.34254 14.0573 2.91713 13.065C3.49171 12.0728 3.94475 10.9923 4.27624 9.82359C4.62983 8.65491 4.88398 7.46417 5.03867 6.25138ZM25.8564 6.18523L28.5414 7.24366C28.011 8.28004 27.4254 9.36053 26.7845 10.4851C26.1657 11.6097 25.5359 12.7012 24.895 13.7596C24.2762 14.796 23.6796 15.7111 23.105 16.505L21.0166 15.5127C21.5691 14.6968 22.1436 13.7486 22.7403 12.6681C23.3591 11.5877 23.9337 10.4851 24.4641 9.36053C25.0166 8.21389 25.4807 7.15546 25.8564 6.18523ZM16.1436 0V10.7166C16.1436 11.3561 16.221 12.1279 16.3757 13.032C16.5304 13.914 16.7956 14.8842 17.1713 15.9427C17.547 16.9791 18.0663 18.0485 18.7293 19.151C19.4144 20.2315 20.2652 21.301 21.2818 22.3594C22.2983 23.4179 23.5249 24.4101 24.9613 25.3363C26.3978 26.2404 28.0773 27.0342 30 27.7178C29.8232 27.8942 29.6243 28.1147 29.4033 28.3793C29.2044 28.6659 29.0055 28.9526 28.8066 29.2393C28.6077 29.5259 28.442 29.7795 28.3094 30C26.3867 29.2723 24.7072 28.4123 23.2707 27.4201C21.8343 26.4278 20.6077 25.3804 19.5912 24.2778C18.5746 23.1753 17.7348 22.0728 17.0718 20.9702C16.4088 19.8677 15.9006 18.8423 15.547 17.8942C15.1934 16.946 14.9392 16.1632 14.7845 15.5458C14.6519 16.1852 14.4088 16.968 14.0552 17.8942C13.7238 18.8203 13.2376 19.8236 12.5967 20.9041C11.9779 21.9846 11.1713 23.0761 10.1768 24.1786C9.20442 25.2811 8.01105 26.3286 6.59668 27.3208C5.20442 28.3352 3.56906 29.2282 1.69061 30C1.60221 29.8236 1.44751 29.6031 1.22652 29.3385C1.02762 29.0959 0.81768 28.8423 0.596685 28.5777C0.375691 28.3131 0.176796 28.0926 0 27.9162C2.23204 27.0783 4.12155 26.075 5.66851 24.9063C7.23757 23.7155 8.53039 22.4697 9.54696 21.1687C10.5635 19.8456 11.3591 18.5336 11.9337 17.2326C12.5083 15.9316 12.9061 14.7189 13.1271 13.5943C13.3481 12.4697 13.4586 11.5215 13.4586 10.7497V0H16.1436Z" fill="#ECF5F1"/>
</svg>
