<svg width="31" height="30" viewBox="0 0 31 30" fill="none" xmlns="http://www.w3.org/2000/svg">
<path d="M1.28344 7.99782H29.8482V10.4461H1.28344V7.99782ZM14.2166 0H16.8163V30H14.2166V0ZM13.6571 9.2383L15.7962 9.98912C15.0283 11.6866 14.1288 13.3406 13.0977 14.951C12.0665 16.5615 10.9476 18.0958 9.74098 19.5539C8.53432 20.9902 7.26185 22.3069 5.92357 23.5038C4.60722 24.679 3.24699 25.6801 1.84289 26.5071C1.71125 26.2894 1.52477 26.0609 1.28344 25.8215C1.06405 25.5604 0.844657 25.3101 0.625265 25.0707C0.405874 24.8313 0.197452 24.6246 0 24.4505C1.36023 23.7106 2.69851 22.7965 4.01486 21.7084C5.35315 20.6202 6.61465 19.4015 7.79936 18.0522C9.00602 16.6812 10.103 15.2557 11.0902 13.7758C12.0994 12.2742 12.9551 10.7617 13.6571 9.2383ZM17.31 9.30359C18.034 10.7617 18.9006 12.2307 19.9098 13.7106C20.919 15.1687 22.0269 16.5724 23.2335 17.9217C24.4621 19.2709 25.7346 20.4897 27.051 21.5778C28.3673 22.6659 29.6837 23.58 31 24.3199C30.8025 24.4723 30.5832 24.679 30.3418 24.9402C30.1005 25.1795 29.8701 25.4298 29.6507 25.691C29.4314 25.9521 29.2558 26.2024 29.1242 26.4418C27.7859 25.593 26.4586 24.5811 25.1423 23.4059C23.8259 22.2089 22.5534 20.8923 21.3248 19.4559C20.1182 17.9978 18.9883 16.4744 17.9352 14.8857C16.9041 13.2753 15.9936 11.6649 15.2038 10.0544L17.31 9.30359Z" fill="#ECF5F1"/>
</svg>
