<svg width="32" height="30" viewBox="0 0 32 30" fill="none" xmlns="http://www.w3.org/2000/svg">
<path d="M15.7935 2.46344C14.853 3.79078 13.6373 5.17435 12.1462 6.61417C10.6781 8.0315 9.03799 9.39258 7.22581 10.6974C5.43656 12.0022 3.56703 13.1609 1.6172 14.1732C1.50251 13.9708 1.35341 13.7458 1.16989 13.4983C0.98638 13.2508 0.791398 13.0146 0.584946 12.7897C0.401434 12.5422 0.206452 12.3285 0 12.1485C1.9957 11.1811 3.91111 10.0225 5.74624 8.67266C7.6043 7.30034 9.27885 5.86052 10.7699 4.35321C12.2609 2.84589 13.4538 1.39483 14.3484 0H16.9634C17.881 1.19235 18.9247 2.37345 20.0946 3.54331C21.2645 4.71316 22.5032 5.81552 23.8108 6.85039C25.1412 7.86277 26.4946 8.78515 27.871 9.61755C29.2703 10.4499 30.6466 11.1586 32 11.7435C31.6789 12.0585 31.3692 12.4184 31.071 12.8234C30.7728 13.2283 30.509 13.622 30.2796 14.0045C28.972 13.3296 27.6301 12.5534 26.2538 11.676C24.8774 10.7762 23.5355 9.82002 22.228 8.80765C20.9434 7.77278 19.7505 6.72666 18.6495 5.66929C17.5484 4.58943 16.5964 3.52081 15.7935 2.46344ZM7.29462 10.3262H24.5333V12.5872H7.29462V10.3262ZM2.82151 17.1091H29.0065V19.3363H2.82151V17.1091ZM1.23871 27.7728H30.6581V30H1.23871V27.7728ZM14.4172 11.2036H17.1355V28.9201H14.4172V11.2036ZM5.67742 21.0574L7.77634 20.2475C8.25806 20.8549 8.71685 21.5298 9.15269 22.2722C9.61147 22.9921 10.0129 23.712 10.357 24.4319C10.7011 25.1294 10.9419 25.7593 11.0796 26.3217L8.84301 27.2666C8.70538 26.7042 8.47599 26.063 8.15484 25.3431C7.83369 24.6232 7.4552 23.892 7.01935 23.1496C6.58351 22.4072 6.1362 21.7098 5.67742 21.0574ZM23.7075 20.18L26.1505 21.1249C25.4853 22.1822 24.7742 23.2846 24.0172 24.4319C23.2832 25.5568 22.5835 26.5017 21.9183 27.2666L19.9914 26.4567C20.4043 25.8943 20.8401 25.2531 21.2989 24.5332C21.7577 23.7908 22.1935 23.0371 22.6065 22.2722C23.0423 21.5073 23.4093 20.8099 23.7075 20.18Z" fill="#ECF5F1"/>
</svg>
