<svg width="111" height="109" viewBox="0 0 111 109" fill="none" xmlns="http://www.w3.org/2000/svg">
<path d="M4.59554 29.0588H106.876V37.9543H4.59554V29.0588ZM50.9045 0H60.2134V109H50.9045V0ZM48.9013 33.5658L56.5605 36.2938C53.811 42.4614 50.5902 48.4708 46.8981 54.3221C43.206 60.1734 39.1996 65.7479 34.879 71.0457C30.5584 76.2644 26.0021 81.0482 21.2102 85.3972C16.4968 89.667 11.6263 93.3043 6.59873 96.309C6.12739 95.5183 5.45966 94.6881 4.59554 93.8183C3.80998 92.8694 3.02442 91.9601 2.23885 91.0903C1.45329 90.2205 0.707006 89.4694 0 88.8368C4.87049 86.1484 9.66242 82.8273 14.3758 78.8738C19.1677 74.9202 23.6847 70.4922 27.9268 65.5898C32.2473 60.6083 36.1752 55.4291 39.7102 50.0522C43.3238 44.5963 46.3875 39.1008 48.9013 33.5658ZM61.9809 33.803C64.5733 39.1008 67.6762 44.4382 71.2898 49.815C74.9034 55.1128 78.8705 60.2129 83.1911 65.1153C87.5902 70.0178 92.1465 74.4458 96.8599 78.3993C101.573 82.3529 106.287 85.6739 111 88.3623C110.293 88.9158 109.507 89.667 108.643 90.6159C107.779 91.4857 106.954 92.395 106.169 93.3438C105.383 94.2927 104.755 95.202 104.283 96.0718C99.4915 92.988 94.7389 89.3112 90.0255 85.0413C85.3121 80.6924 80.7558 75.9086 76.3567 70.6899C72.0361 65.3921 67.9905 59.8571 64.2197 54.0849C60.5276 48.2336 57.2675 42.3823 54.4395 36.531L61.9809 33.803Z" fill="#ECF5F1" fill-opacity="0.2"/>
</svg>
