<svg width="31" height="30" viewBox="0 0 31 30" fill="none" xmlns="http://www.w3.org/2000/svg">
<path d="M0.854719 8.29162H10.7169V10.7726H0.854719V8.29162ZM14.2344 0H16.8314V26.5071C16.8314 27.3776 16.6999 28.0305 16.4369 28.4657C16.1958 28.901 15.8013 29.2383 15.2534 29.4777C14.7055 29.6736 13.9385 29.8041 12.9523 29.8694C11.9661 29.9565 10.7169 30 9.20467 30C9.16083 29.7388 9.08413 29.445 8.97455 29.1186C8.86497 28.8139 8.74443 28.4984 8.61294 28.1719C8.48144 27.8455 8.33899 27.5626 8.18558 27.3232C9.39095 27.3449 10.4648 27.3558 11.4072 27.3558C12.3715 27.3776 13.018 27.3776 13.3468 27.3558C13.6755 27.3341 13.9056 27.2688 14.0371 27.16C14.1686 27.0294 14.2344 26.8118 14.2344 26.5071V0ZM9.86214 8.29162H10.3881L10.8484 8.19369L12.5249 8.84657C11.9551 11.6975 11.1552 14.2764 10.1251 16.5832C9.09509 18.8901 7.88971 20.9032 6.50901 22.6224C5.12831 24.3417 3.62708 25.7345 2.0053 26.8009C1.87381 26.605 1.68752 26.3874 1.44645 26.148C1.20537 25.8868 0.95334 25.6366 0.69035 25.3972C0.42736 25.1578 0.197243 24.9837 0 24.8749C1.57794 23.8955 3.02439 22.6333 4.33934 21.0881C5.65429 19.543 6.78296 17.7476 7.72534 15.7018C8.68964 13.6344 9.40191 11.3602 9.86214 8.87922V8.29162ZM16.667 5.35365C17.2368 7.52992 17.9601 9.64091 18.8367 11.6866C19.7133 13.7323 20.7434 15.6366 21.9268 17.3993C23.1103 19.1404 24.4581 20.6855 25.9703 22.0348C27.4825 23.3841 29.1591 24.4505 31 25.2339C30.8028 25.3863 30.5836 25.593 30.3425 25.8542C30.1014 26.1153 29.8713 26.3874 29.6522 26.6703C29.433 26.9532 29.2467 27.2144 29.0933 27.4538C26.5949 26.235 24.4143 24.5484 22.5514 22.3939C20.7105 20.2176 19.1435 17.7149 17.8505 14.8857C16.5794 12.0348 15.5384 8.99891 14.7275 5.77802L16.667 5.35365ZM27.4168 5.22307L29.685 6.82263C28.7865 7.82372 27.7893 8.86834 26.6935 9.95647C25.6197 11.0229 24.5348 12.0457 23.439 13.025C22.3432 14.0044 21.3132 14.864 20.3489 15.6039L18.6066 14.2329C19.549 13.4712 20.5571 12.5789 21.631 11.556C22.7268 10.5114 23.7787 9.44505 24.7869 8.35691C25.8169 7.24701 26.6935 6.20239 27.4168 5.22307Z" fill="#ECF5F1"/>
</svg>
