<svg width="112" height="109" viewBox="0 0 112 109" fill="none" xmlns="http://www.w3.org/2000/svg">
<path d="M3.08802 30.1262H38.719V39.1404H3.08802V30.1262ZM51.4274 0H60.8102V96.309C60.8102 99.4719 60.3351 101.844 59.3849 103.425C58.514 105.007 57.0887 106.233 55.1092 107.102C53.1297 107.814 50.3584 108.288 46.7953 108.526C43.2322 108.842 38.719 109 33.2556 109C33.0972 108.051 32.8201 106.984 32.4242 105.798C32.0283 104.691 31.5928 103.544 31.1177 102.358C30.6426 101.172 30.128 100.144 29.5737 99.2742C33.9286 99.3533 37.8084 99.3928 41.2131 99.3928C44.6971 99.4719 47.0329 99.4719 48.2206 99.3928C49.4083 99.3138 50.2397 99.0765 50.7147 98.6812C51.1898 98.2068 51.4274 97.416 51.4274 96.309V0ZM35.631 30.1262H37.5313L39.1941 29.7704L45.2513 32.1425C43.1926 42.5009 40.3026 51.8709 36.5811 60.2524C32.8597 68.634 28.5048 75.9481 23.5164 82.1948C18.5281 88.4414 13.1043 93.502 7.24496 97.3765C6.76988 96.6649 6.09685 95.8741 5.22588 95.0044C4.3549 94.0555 3.44433 93.1462 2.49417 92.2764C1.54401 91.4066 0.712619 90.774 0 90.3787C5.70095 86.8205 10.9268 82.2343 15.6776 76.6202C20.4284 71.0062 24.5062 64.4828 27.9109 57.0501C31.3948 49.5383 33.9682 41.2753 35.631 32.2612V30.1262ZM60.2163 19.4516C62.275 27.3587 64.8879 35.0287 68.0551 42.4614C71.2223 49.8941 74.9438 56.8128 79.2195 63.2176C83.4952 69.5433 88.3648 75.1574 93.8282 80.0599C99.2916 84.9623 105.349 88.8368 112 91.6834C111.287 92.2369 110.496 92.988 109.625 93.9369C108.754 94.8857 107.922 95.8741 107.13 96.9021C106.339 97.93 105.666 98.8789 105.111 99.7486C96.0848 95.3206 88.2064 89.1926 81.4761 81.3645C74.825 73.4574 69.1637 64.3642 64.492 54.0849C59.8996 43.7265 56.1386 32.6961 53.2089 20.9935L60.2163 19.4516ZM99.0541 18.9772L107.249 24.7889C104.003 28.4262 100.4 32.2216 96.4411 36.1752C92.5613 40.0497 88.6419 43.7661 84.6829 47.3243C80.7239 50.8825 77.0025 54.0058 73.5186 56.6942L67.2238 51.7127C70.6285 48.9452 74.2708 45.7033 78.1506 41.9869C82.1096 38.1915 85.9102 34.317 89.5525 30.3634C93.2739 26.3308 96.4411 22.5354 99.0541 18.9772Z" fill="#ECF5F1" fill-opacity="0.2"/>
</svg>
