<svg width="114" height="109" viewBox="0 0 114 109" fill="none" xmlns="http://www.w3.org/2000/svg">
<path d="M56.2645 8.95051C52.914 13.7732 48.5828 18.8001 43.271 24.0315C38.0409 29.1811 32.1978 34.1264 25.7419 38.8673C19.3677 43.6082 12.7075 47.8178 5.76129 51.4961C5.35269 50.7604 4.82151 49.943 4.16774 49.0439C3.51398 48.1447 2.81935 47.2865 2.08387 46.4691C1.43011 45.5699 0.735484 44.7934 0 44.1395C7.10968 40.6247 13.9333 36.4151 20.471 31.5107C27.0903 26.5246 33.0559 21.2932 38.3677 15.8166C43.6796 10.3401 47.929 5.06786 51.1161 0H60.4323C63.7011 4.33221 67.4194 8.62354 71.5871 12.874C75.7548 17.1245 80.1677 21.1297 84.8258 24.8898C89.5656 28.5681 94.3871 31.9194 99.2903 34.9438C104.275 37.9681 109.178 40.5429 114 42.6682C112.856 43.8125 111.753 45.1204 110.69 46.5917C109.628 48.063 108.688 49.4934 107.871 50.883C103.213 48.4308 98.4323 45.6108 93.529 42.4229C88.6258 39.1534 83.8452 35.6794 79.1871 32.0011C74.6108 28.2411 70.3613 24.4402 66.4387 20.5984C62.5161 16.6749 59.1247 12.7923 56.2645 8.95051ZM25.9871 37.5186H87.4V45.7334H25.9871V37.5186ZM10.0516 62.1631H103.335V70.2553H10.0516V62.1631ZM4.4129 100.908H109.219V109H4.4129V100.908ZM51.3613 40.7064H61.0452V105.076H51.3613V40.7064ZM20.2258 76.5084L27.7032 73.5658C29.4194 75.7728 31.0538 78.225 32.6064 80.9224C34.2409 83.5381 35.671 86.1537 36.8968 88.7694C38.1226 91.3033 38.9806 93.5921 39.471 95.6355L31.5032 99.0686C31.0129 97.0251 30.1957 94.6955 29.0516 92.0799C27.9075 89.4642 26.5591 86.8076 25.0065 84.1102C23.4538 81.4128 21.8602 78.8789 20.2258 76.5084ZM84.4581 73.3206L93.1613 76.7537C90.7914 80.5954 88.2581 84.6007 85.5613 88.7694C82.9462 92.8564 80.4538 96.2895 78.0839 99.0686L71.2194 96.126C72.6903 94.0825 74.243 91.7529 75.8774 89.1372C77.5118 86.4398 79.0645 83.7015 80.5355 80.9224C82.0882 78.1432 83.3957 75.6093 84.4581 73.3206Z" fill="#ECF5F1" fill-opacity="0.2"/>
</svg>
